# xmcd
#
# Track frame offsets:
#	150
#	16113
#	29320
#	47579
#	60504
#	73907
#	90467
#	111194
#	129611
#	144616
#	161425
#	179865
#
# Disc length: 2596 seconds
# Revision: 0
# Processed by: cddbd v1.5.2PL0 Copyright (c) Steve Scherf et al.
# Submitted via: dBpowerAMP V12.0
#
DISCID=a40a220c
DTITLE=Various Artist - The Next Move
DYEAR=2014
DGENRE=Country
TTITLE0=Phil Leadbetter feat. John Cowan and Sam Bush - I'm a Ramblin' Rolling Stone
TTITLE1=Phil Leadbetter feat. Steve Gulley and Dale Ann Bradley - I've Never Seen a Love That Wasn't Blind
TTITLE2=Phil Leadbetter feat. Marty Raybon and Joe Diffey - Baptism
TTITLE3=Phil Leadbetter feat. Jerry Douglas and Rob Ickes - Just Joshin'
TTITLE4=Phil Leadbetter feat. Shawn Camp - Jesus, My Old Dog and Me
TTITLE5=Phil Leadbetter feat. Steve Wariner - Hole in the Earth
TTITLE6=Phil Leadbetter feat. Con Hunley - Georgia on My Mind
TTITLE7=Phil Leadbetter - Leadbelly
TTITLE8=Phil Leadbetter feat. Shawn Camp - Pull the Trigger
TTITLE9=Phil Leadbetter feat. Ken Mellons - I'm a Modern Day Interstate Gypsy
TTITLE10=Phil Leadbetter feat. Bela Fleck and Buck White - Sweet Georgia Brown
TTITLE11=Phil Leadbetter - When the Roll is Called up Yonder
EXTD=
EXTT0=
EXTT1=
EXTT2=
EXTT3=
EXTT4=
EXTT5=
EXTT6=
EXTT7=
EXTT8=
EXTT9=
EXTT10=
EXTT11=
PLAYORDER=
